<?xml version="1.0" standalone="no"?>
<!DOCTYPE svg PUBLIC "-//W3C//DTD SVG 20010904//EN"
 "http://www.w3.org/TR/2001/REC-SVG-20010904/DTD/svg10.dtd">
<svg version="1.0" xmlns="http://www.w3.org/2000/svg"
 width="1472.000000pt" height="1472.000000pt" viewBox="0 0 1472.000000 1472.000000"
 preserveAspectRatio="xMidYMid meet">

<g transform="translate(0.000000,1472.000000) scale(0.100000,-0.100000)"
fill="#000000" stroke="none">
<path d="M7310 11788 c-260 -16 -571 -77 -730 -143 -30 -13 -73 -28 -95 -35
-125 -40 -386 -194 -549 -324 -395 -315 -681 -800 -821 -1391 -34 -142 -71
-375 -87 -540 -19 -203 -16 -662 6 -825 79 -601 297 -1136 635 -1557 138 -172
195 -231 406 -418 22 -20 103 -78 180 -130 406 -272 812 -397 1285 -397 449 0
856 128 1250 392 438 294 818 779 1017 1300 96 250 178 577 205 815 17 152 16
647 -1 810 -15 150 -57 414 -75 480 -8 28 -17 67 -21 89 -3 21 -23 93 -44 160
-221 706 -602 1182 -1176 1469 -381 191 -871 278 -1385 245z"/>
<path d="M6870 5260 c-1213 -9 -1286 -13 -1620 -76 -678 -128 -1284 -418
-1826 -874 -89 -75 -349 -329 -414 -406 -96 -112 -132 -158 -220 -279 -77
-105 -206 -312 -282 -449 -236 -430 -387 -924 -450 -1476 -13 -112 -13 -1108
0 -1270 4 -47 4 -116 0 -155 -3 -38 -9 -116 -12 -173 l-7 -102 5547 0 5547 0
-7 123 c-4 67 -12 157 -16 201 -6 47 -6 162 0 290 13 274 -3 1044 -25 1201
-82 596 -242 1056 -543 1565 -274 464 -711 920 -1177 1231 -490 327 -1014 528
-1620 622 l-200 31 -850 1 c-467 1 -1289 -1 -1825 -5z"/>
</g>
</svg>
